<svg width="248" height="28" viewBox="0 0 248 28" fill="none" xmlns="http://www.w3.org/2000/svg">
<g clip-path="url(#clip0_1607_1316)">
<path d="M0.19794 20.7693C0.19794 20.3321 0.467684 20.1246 0.729935 19.9468C1.02965 19.7097 1.2919 19.5096 1.2919 19.0353V9.10564C1.2919 8.57951 0.992186 8.34238 0.699963 8.14231C0.43022 7.93482 0.167969 7.73475 0.167969 7.29013C0.167969 6.84552 0.490163 6.52688 0.969707 6.52688H4.349C5.03085 6.52688 5.44296 6.93444 5.44296 7.63841V8.92779C6.36458 7.26049 7.78074 6.23047 9.38421 6.23047C10.8079 6.23047 11.9318 7.02336 11.9318 8.48318C11.9318 9.71328 11.1001 10.6247 9.79632 10.6247C8.96461 10.6247 8.46259 10.2172 8.11042 9.74292C7.81071 9.41687 7.51849 9.18715 7.13635 9.18715C6.54441 9.18715 5.86256 9.68364 5.45045 10.8841V19.0279C5.45045 19.4651 5.75017 19.7023 6.1323 19.8801C6.43202 20.058 6.78418 20.2877 6.78418 20.7619C6.78418 21.1695 6.46199 21.4659 5.98245 21.4659H0.999679C0.527627 21.4659 0.19794 21.1695 0.19794 20.7619V20.7693Z" fill="#F37021"/>
<path d="M12.6364 14.0036C12.6364 9.37964 15.7459 6.24512 20.4515 6.24512C23.9432 6.24512 26.3409 7.94206 26.3409 10.3726C26.3409 13.4182 22.6993 14.6187 17.1022 14.7372C17.7241 17.0196 19.2376 18.9833 21.8077 18.9833C23.6734 18.9833 24.5351 18.1015 25.157 17.5161C25.5391 17.1678 25.8089 16.9307 26.0786 16.9307C26.3783 16.9307 26.5807 17.1085 26.5807 17.6643C26.5807 19.5094 24.3028 21.7621 20.3316 21.7621C15.7385 21.7621 12.6289 18.7165 12.6289 14.0036H12.6364ZM16.8699 13.5294C21.1034 13.4108 22.5869 12.24 22.5869 10.3356C22.5869 8.75719 21.6129 7.55673 20.0693 7.55673C17.9938 7.55673 16.75 9.639 16.75 12.0992C16.75 12.566 16.78 13.0329 16.8699 13.5368V13.5294Z" fill="#F37021"/>
<path d="M28.2422 17.8052C28.2422 14.1445 32.6855 12.8848 37.6907 12.8255V10.8025C37.6907 8.52014 36.4769 7.5494 34.8209 7.5494C33.165 7.5494 32.8353 8.60166 32.5731 9.63168C32.3333 10.6543 32.101 11.625 30.6174 11.625C29.4036 11.625 28.7817 10.9507 28.7817 9.95773C28.7817 8.08294 31.1195 6.23779 35.1207 6.23779C39.1219 6.23779 41.8418 7.93474 41.8418 11.6547V19.0056C41.8418 19.5317 42.164 19.7689 42.4637 19.9986C42.7334 20.1764 42.9657 20.3469 42.9657 20.7322C42.9657 21.3769 42.0441 21.7548 40.8602 21.7548C39.2642 21.7548 38.1927 21.0212 37.8406 19.8504C36.6567 21.0508 35.0008 21.7548 33.0751 21.7548C30.2053 21.7548 28.2497 20.2283 28.2497 17.7977L28.2422 17.8052ZM35.2855 19.591C36.2296 19.591 37.1213 19.2427 37.6832 18.6277V14.5891C37.2112 14.352 36.7091 14.2112 36.0273 14.2112C33.8394 14.2112 32.2659 15.2042 32.2659 16.8789C32.2659 18.5536 33.6296 19.6058 35.2855 19.6058V19.591Z" fill="#F37021"/>
<path d="M44.4958 14.1446C44.4958 9.3428 47.1932 6.23791 51.2469 6.23791C53.0826 6.23791 54.4763 6.8826 55.4204 7.93485V3.548C55.4204 3.02187 55.0982 2.78474 54.7985 2.58467C54.5287 2.37718 54.2665 2.17711 54.2665 1.73249C54.2665 1.28788 54.5962 0.969238 55.0682 0.969238H58.47C59.1219 0.969238 59.564 1.3768 59.564 2.08077V19.0057C59.564 19.5319 59.8637 19.769 60.1559 19.9987C60.4556 20.1766 60.6579 20.347 60.6579 20.7323C60.6579 21.377 59.7363 21.7549 58.5824 21.7549C56.8365 21.7549 55.7126 20.9028 55.4728 19.5911C54.289 21.0287 52.633 21.7549 50.7673 21.7549C46.9759 21.7549 44.4883 18.7093 44.4883 14.1372L44.4958 14.1446ZM52.7904 19.6801C53.9143 19.6801 54.8659 19.0057 55.4279 17.8053V11.6251C54.776 9.43172 53.5322 7.55693 51.7863 7.55693C49.8007 7.55693 48.6169 9.63921 48.6169 12.2995C48.6169 15.3451 50.0705 19.6801 52.7904 19.6801Z" fill="#F37021"/>
<path d="M61.4688 24.4299C61.4688 23.4369 62.1806 22.7329 63.3345 22.7329C64.3685 22.7329 64.9305 23.348 65.38 24.0223C65.6797 24.5188 66.0019 25.0449 66.6838 25.0449C67.5754 25.0449 68.1974 24.0816 68.8717 22.5847L69.0815 22.0586L63.1322 8.99438C62.9523 8.61645 62.6601 8.37933 62.3005 8.17184C61.9183 7.96435 61.5587 7.73464 61.5587 7.23815C61.5587 6.83059 61.8884 6.53418 62.3604 6.53418H67.7478C68.2198 6.53418 68.5495 6.83059 68.5495 7.23815C68.5495 7.67535 68.2498 7.88284 67.9876 8.06069C67.6354 8.29781 67.3956 8.52753 67.5754 8.97215L71.1271 17.3161L74.5888 9.00179C74.7986 8.53494 74.4689 8.29781 74.0868 8.09774C73.7646 7.89025 73.4049 7.66053 73.4049 7.24556C73.4049 6.83059 73.7346 6.54159 74.2066 6.54159H77.0764C77.5485 6.54159 77.8482 6.838 77.8482 7.24556C77.8482 7.74205 77.5485 7.97917 77.1364 8.17925C76.7842 8.3571 76.4845 8.58681 76.3047 9.00179L70.2954 22.9997C69.3513 25.1931 68.3997 27.0383 65.44 27.0383C63.2221 27.0383 61.4688 25.986 61.4688 24.4299Z" fill="#F37021"/>
<path d="M87.2565 17.9829V7.99394H85.9527C85.5107 7.99394 85.2109 7.6753 85.2109 7.23069C85.2109 6.70456 85.653 6.52671 86.3049 6.32664C87.9009 5.83015 89.0023 5.03726 89.7067 3.48852C89.9764 2.96239 90.2087 2.58447 90.6807 2.58447C91.0929 2.58447 91.3926 2.87347 91.3926 3.31809V6.54154H94.622C95.0641 6.54154 95.3638 6.83794 95.3638 7.27515C95.3638 7.74199 95.0641 8.00876 94.622 8.00876H91.3926V17.8792C91.3926 18.8425 91.9545 19.4576 92.8462 19.4576C93.3482 19.4576 93.7378 19.2501 94.06 19.0796C94.3597 18.9018 94.622 18.7832 94.8318 18.7832C95.184 18.7832 95.3938 19.05 95.3938 19.3686C95.3938 20.3023 93.6479 21.7696 91.2502 21.7696C88.8525 21.7696 87.249 20.243 87.249 17.9903L87.2565 17.9829Z" fill="#F37021"/>
<path d="M96.3477 14.0036C96.3477 9.32036 99.4572 6.24512 104.163 6.24512C108.868 6.24512 111.948 9.32036 111.948 14.0036C111.948 18.6869 108.838 21.7621 104.163 21.7621C99.4872 21.7621 96.3477 18.6869 96.3477 14.0036ZM107.842 15.6413C107.842 11.951 106.246 7.55673 103.548 7.55673C101.653 7.55673 100.469 9.639 100.469 12.3882C100.469 16.0785 102.065 20.4431 104.762 20.4431C106.568 20.4431 107.842 18.598 107.842 15.6413Z" fill="#F37021"/>
<path d="M126.438 20.7397C125.966 20.473 125.546 20.2432 125.074 20.2432C124.512 20.2432 124.182 20.5619 123.86 20.9176C123.538 21.2955 123.178 21.6215 122.586 21.6215C121.994 21.6215 121.612 21.2436 121.612 20.6286V3.548C121.612 3.02187 121.312 2.78474 121.02 2.58467C120.751 2.37718 120.488 2.17711 120.488 1.73249C120.488 1.28788 120.81 0.969238 121.29 0.969238H124.662C125.344 0.969238 125.756 1.3768 125.756 2.08077V8.40911C126.88 7.00116 128.513 6.24532 130.401 6.24532C134.193 6.24532 136.65 9.29093 136.65 13.863C136.65 18.6649 133.983 21.7698 129.929 21.7698C128.183 21.7698 127.232 21.214 126.438 20.7471V20.7397ZM129.397 20.4433C131.353 20.4433 132.537 18.361 132.537 15.7008C132.537 12.6552 131.083 8.32019 128.393 8.32019C127.239 8.32019 126.288 8.99452 125.756 10.1357V16.5233C126.408 18.6352 127.622 20.4507 129.397 20.4507V20.4433Z" fill="#F37021"/>
<path d="M139.378 17.3088V9.1057C139.378 8.57957 139.078 8.34245 138.786 8.14237C138.516 7.93489 138.254 7.73481 138.254 7.2902C138.254 6.84558 138.576 6.52694 139.056 6.52694H142.435C143.117 6.52694 143.529 6.99379 143.529 7.66812V17.1532C143.529 18.6204 144.503 19.5541 145.897 19.5541C147.17 19.5541 148.324 18.7909 149.036 17.6201V9.09829C149.036 8.57217 148.736 8.33504 148.444 8.13496C148.174 7.92748 147.912 7.7274 147.912 7.28279C147.912 6.83817 148.212 6.51953 148.684 6.51953H152.086C152.768 6.51953 153.18 6.92709 153.18 7.63107V18.9909C153.18 19.5171 153.479 19.7542 153.802 19.9839C154.071 20.1618 154.304 20.3322 154.304 20.7175C154.304 21.3622 153.36 21.7401 152.198 21.7401C150.332 21.7401 149.179 20.7768 149.029 19.2503C147.755 20.799 145.949 21.7401 143.904 21.7401C141.266 21.7401 139.37 20.1025 139.37 17.2866L139.378 17.3088Z" fill="#F37021"/>
<path d="M155.066 24.4299C155.066 23.4369 155.778 22.7329 156.932 22.7329C157.966 22.7329 158.528 23.348 158.978 24.0223C159.277 24.5188 159.6 25.0449 160.281 25.0449C161.173 25.0449 161.795 24.0816 162.469 22.5847L162.679 22.0586L156.73 8.99438C156.55 8.61645 156.258 8.37933 155.898 8.17184C155.516 7.96435 155.156 7.73464 155.156 7.23815C155.156 6.83059 155.486 6.53418 155.958 6.53418H161.345C161.817 6.53418 162.147 6.83059 162.147 7.23815C162.147 7.67535 161.847 7.88284 161.585 8.06069C161.233 8.29781 160.993 8.52753 161.173 8.97215L164.725 17.3161L168.186 9.00179C168.396 8.53494 168.067 8.29781 167.684 8.09774C167.362 7.89025 167.003 7.66053 167.003 7.24556C167.003 6.83059 167.332 6.54159 167.804 6.54159H170.674C171.146 6.54159 171.446 6.838 171.446 7.24556C171.446 7.74205 171.146 7.97917 170.734 8.17925C170.382 8.3571 170.082 8.58681 169.902 9.00179L163.893 22.9997C162.949 25.1931 161.997 27.0383 159.038 27.0383C156.82 27.0383 155.066 25.986 155.066 24.4299Z" fill="#F37021"/>
<path fill-rule="evenodd" clip-rule="evenodd" d="M230.965 13.6466C230.965 9.02628 233.662 6.03876 237.716 6.03876C239.551 6.03876 240.945 6.65908 241.889 7.67155V3.45052C241.889 2.94428 241.567 2.71612 241.267 2.52361L241.264 2.52141C240.996 2.32254 240.735 2.12988 240.735 1.70364C240.735 1.27583 241.065 0.969238 241.537 0.969238H244.939C245.591 0.969238 246.033 1.3614 246.033 2.03876V18.324C246.033 18.8302 246.332 19.0584 246.625 19.2794C246.924 19.4505 247.127 19.6145 247.127 19.9853C247.127 20.6056 246.205 20.9692 245.051 20.9692C243.305 20.9692 242.181 20.1493 241.942 18.8872C241.287 19.6519 240.488 20.2073 239.59 20.5513C237.269 19.9027 234.939 19.3422 232.604 18.8697C231.552 17.5918 230.957 15.7913 230.957 13.6395L230.965 13.6466ZM228.275 18.0957V10.3453C228.275 7.60735 226.326 6.0316 223.599 6.0316C221.523 6.0316 219.658 6.96564 218.354 8.48436V7.38632C218.354 6.70896 217.942 6.3168 217.26 6.3168H213.881C213.401 6.3168 213.079 6.6234 213.079 7.0512C213.079 7.47744 213.339 7.67011 213.608 7.86897L213.611 7.87117C213.903 8.06368 214.203 8.29184 214.203 8.79808V16.9704C215.584 16.9773 216.966 17.0146 218.346 17.0823V10.1172C219.088 8.90504 220.302 8.14211 221.666 8.14211C223.119 8.14211 224.124 9.06903 224.124 10.4808V17.5436C225.508 17.6969 226.892 17.881 228.275 18.0957ZM210.449 17.0266V11.2509C210.449 7.67162 207.729 6.03882 203.728 6.03882C199.727 6.03882 197.389 7.81422 197.389 9.61814C197.389 10.5736 198.011 11.2224 199.225 11.2224C200.708 11.2224 200.941 10.2884 201.18 9.30441C201.443 8.31333 201.772 7.30085 203.428 7.30085C205.084 7.30085 206.298 8.2349 206.298 10.431V12.3775C201.293 12.4345 196.85 13.6467 196.85 17.1689L196.857 17.1618C196.857 17.6265 196.934 18.0568 197.081 18.4481C198.51 18.1934 199.941 17.9715 201.374 17.7826C201.062 17.3742 200.881 16.8658 200.881 16.2777C200.881 14.6663 202.454 13.7108 204.642 13.7108C205.324 13.7108 205.826 13.8463 206.298 14.0745V17.2632C207.681 17.1538 209.065 17.0749 210.449 17.0266ZM195.089 18.8247V15.9638C195.089 15.479 194.789 15.1154 194.317 15.1154C193.695 15.1154 193.335 15.8212 192.953 16.6911C192.414 17.7892 191.709 19.1154 190.196 19.1154H186.554C185.842 19.1154 185.4 18.6947 185.4 18.0458V4.0708C185.4 3.59308 185.692 3.37205 185.992 3.1724C186.284 2.95137 186.584 2.72321 186.584 2.27401C186.584 1.82481 186.224 1.5396 185.692 1.5396H180.627C180.118 1.5396 179.766 1.82481 179.766 2.27401C179.766 2.72179 180.056 2.94285 180.355 3.17025L180.358 3.1724C180.65 3.36492 180.95 3.59308 180.95 4.0708V18.1671C180.95 18.6448 180.657 18.8658 180.358 19.0654L180.313 19.0991C180.036 19.3075 179.766 19.5105 179.766 19.9638H179.781C179.781 20.413 180.14 20.6982 180.642 20.6982H187.36C189.927 19.9659 192.504 19.3414 195.089 18.8247ZM239.259 18.9728C240.383 18.9728 241.335 18.324 241.897 17.1689V11.2224C241.245 9.11184 240.001 7.30792 238.255 7.30792C236.269 7.30792 235.086 9.31148 235.086 11.8712C235.086 14.8017 236.539 18.9728 239.259 18.9728Z" fill="#F37021"/>
</g>
<defs>
<clipPath id="clip0_1607_1316">
<rect width="247" height="28" fill="white" transform="translate(0.167969)"/>
</clipPath>
</defs>
</svg>
