<svg width="22" height="22" viewBox="0 0 22 22" fill="none" xmlns="http://www.w3.org/2000/svg">
<path fill-rule="evenodd" clip-rule="evenodd" d="M11 0.25C5.06294 0.25 0.25 5.06294 0.25 11C0.25 16.9371 5.06294 21.75 11 21.75C16.9371 21.75 21.75 16.9371 21.75 11C21.75 5.06294 16.9371 0.25 11 0.25ZM6.53044 10.9697C6.23755 10.6768 5.76268 10.6768 5.46978 10.9697C5.17689 11.2626 5.17689 11.7374 5.46978 12.0303L8.46978 15.0303C8.76268 15.3232 9.2376 15.3232 9.5304 15.0303L16.5304 8.03033C16.8233 7.73744 16.8233 7.26256 16.5304 6.96967C16.2375 6.67678 15.7627 6.67678 15.4698 6.96967L9.0001 13.4393L6.53044 10.9697Z" fill="#F37021"/>
</svg>
